<svg width="129" height="128" viewBox="0 0 129 128" fill="none"
    xmlns="http://www.w3.org/2000/svg">
    <g filter="url(#filter0_d_2_937)">
        <rect x="24.647" y="20" width="80" height="80" rx="40" fill="white" fill-opacity="0.75" shape-rendering="crispEdges"/>
    </g>
    <path d="M78.9224 46.7026C78.9108 46.68 78.8914 46.6623 78.8679 46.6526C76.1448 45.4032 73.2711 44.5123 70.3188 44.0022C70.292 43.9972 70.2643 44.0008 70.2396 44.0125C70.215 44.0241 70.1946 44.0433 70.1815 44.0672C69.7902 44.7774 69.435 45.5069 69.1172 46.2529C65.9348 45.7698 62.6977 45.7698 59.5153 46.2529C59.1954 45.505 58.8345 44.7753 58.4342 44.0672C58.4205 44.0438 58.4001 44.0251 58.3755 44.0135C58.351 44.0019 58.3236 43.998 58.2968 44.0022C55.3442 44.5113 52.4704 45.4022 49.7476 46.6527C49.7243 46.6626 49.7047 46.6794 49.6914 46.701C44.2464 54.8323 42.7548 62.7637 43.4866 70.5968C43.4886 70.616 43.4945 70.6346 43.5039 70.6515C43.5133 70.6684 43.526 70.6832 43.5412 70.695C46.7117 73.0426 50.258 74.8345 54.0287 75.9943C54.0553 76.0022 54.0836 76.0019 54.11 75.9933C54.1363 75.9846 54.1594 75.9681 54.1761 75.946C54.9859 74.844 55.7035 73.6772 56.3216 72.4573C56.3301 72.4405 56.3349 72.4222 56.3358 72.4034C56.3367 72.3847 56.3336 72.366 56.3267 72.3485C56.3198 72.331 56.3093 72.3152 56.2959 72.3021C56.2825 72.289 56.2664 72.2789 56.2488 72.2724C55.1172 71.8394 54.0217 71.3175 52.9725 70.7115C52.9534 70.7003 52.9374 70.6845 52.9259 70.6657C52.9144 70.6468 52.9076 70.6254 52.9063 70.6034C52.905 70.5813 52.9092 70.5592 52.9184 70.5392C52.9276 70.5191 52.9417 70.5016 52.9593 70.4882C53.1794 70.3233 53.3997 70.1517 53.6099 69.9784C53.6286 69.963 53.6512 69.9532 53.6752 69.9499C53.6992 69.9467 53.7236 69.9502 53.7457 69.9601C60.6192 73.0971 68.0607 73.0971 74.8529 69.9601C74.875 69.9496 74.8997 69.9456 74.924 69.9485C74.9483 69.9515 74.9713 69.9613 74.9903 69.9768C75.2006 70.15 75.4208 70.3233 75.6426 70.4882C75.6603 70.5014 75.6744 70.5188 75.6838 70.5388C75.6932 70.5588 75.6975 70.5809 75.6964 70.6029C75.6952 70.625 75.6887 70.6464 75.6773 70.6654C75.6659 70.6843 75.65 70.7001 75.631 70.7115C74.5842 71.3226 73.4877 71.8442 72.3531 72.2708C72.3355 72.2775 72.3195 72.2878 72.3062 72.3011C72.2928 72.3144 72.2824 72.3304 72.2757 72.348C72.269 72.3656 72.266 72.3845 72.267 72.4033C72.2681 72.4221 72.2731 72.4405 72.2817 72.4573C72.9101 73.6704 73.6266 74.8358 74.4256 75.9441C74.4418 75.9668 74.4647 75.9839 74.4912 75.9928C74.5176 76.0018 74.5462 76.0022 74.5729 75.9941C78.3504 74.8382 81.9029 73.0461 85.0774 70.695C85.0928 70.6838 85.1057 70.6693 85.1151 70.6527C85.1246 70.636 85.1303 70.6175 85.132 70.5985C86.008 61.5425 83.6655 53.6761 78.9224 46.7026ZM57.3481 65.8272C55.2787 65.8272 53.5735 63.9282 53.5735 61.5959C53.5735 59.2636 55.2456 57.3644 57.3481 57.3644C59.467 57.3644 61.1557 59.2801 61.1226 61.5957C61.1226 63.9282 59.4505 65.8272 57.3481 65.8272ZM71.3038 65.8272C69.2345 65.8272 67.5293 63.9282 67.5293 61.5959C67.5293 59.2636 69.2014 57.3644 71.3038 57.3644C73.4229 57.3644 75.1115 59.2801 75.0784 61.5957C75.0784 63.9282 73.4229 65.8272 71.3038 65.8272Z" fill="#39ADA3"/>
    <defs>
        <filter id="filter0_d_2_937" x="0.646973" y="0" width="128" height="128" filterUnits="userSpaceOnUse" color-interpolation-filters="sRGB">
            <feFlood flood-opacity="0" result="BackgroundImageFix"/>
            <feColorMatrix in="SourceAlpha" type="matrix" values="0 0 0 0 0 0 0 0 0 0 0 0 0 0 0 0 0 0 127 0" result="hardAlpha"/>
            <feOffset dy="4"/>
            <feGaussianBlur stdDeviation="12"/>
            <feComposite in2="hardAlpha" operator="out"/>
            <feColorMatrix type="matrix" values="0 0 0 0 0.360784 0 0 0 0 0.784314 0 0 0 0 0.745098 0 0 0 1 0"/>
            <feBlend mode="normal" in2="BackgroundImageFix" result="effect1_dropShadow_2_937"/>
            <feBlend mode="normal" in="SourceGraphic" in2="effect1_dropShadow_2_937" result="shape"/>
        </filter>
    </defs>
</svg>
